PathFileType	4	(X/Y/Z)	 New Session 103.trc
DataRate	CameraRate	NumFrames	NumMarkers	Units	OrigDataRate	OrigDataStartFrame	OrigNumFrames
100	100	19	14	m	100	466	620
Frame#	Time	C7			T8			IJ			PX			AA			AC			AI			TS			SC			GH			LE			ME			US			RS			
		X1	Y1	Z1	X2	Y2	Z2	X3	Y3	Z3	X4	Y4	Z4	X5	Y5	Z5	X6	Y6	Z6	X7	Y7	Z7	X8	Y8	Z8	X9	Y9	Z9	X10	Y10	Z10	X11	Y11	Z11	X12	Y12	Z12	X13	Y13	Z13	X14	Y14	Z14	
466	4.6600	0.034563	0.099170	0.152586	0.028264	-0.115102	0.221075	0.001906	-0.002058	-0.010981	-0.003538	-0.144777	-0.078574	0.230028	-0.008945	0.117749	0.177490	0.035882	0.050471	0.115844	0.019759	0.184826	0.111525	-0.098138	0.218665	0.027074	0.005471	-0.007018	0.239620	0.002549	0.075986	0.266440	-0.287135	-0.002914	0.177772	-0.305171	-0.027151	0.285893	-0.546584	-0.110336	0.349242	-0.510409	-0.134256	
467	4.6700	0.034534	0.099180	0.152592	0.028242	-0.115106	0.221093	0.001950	-0.002052	-0.011015	-0.003462	-0.144726	-0.078655	0.230004	-0.008947	0.117911	0.177536	0.035911	0.050608	0.115736	0.019729	0.184956	0.111442	-0.098197	0.218731	0.027111	0.005497	-0.007056	0.239652	0.002579	0.076184	0.266429	-0.287073	-0.002879	0.177848	-0.305108	-0.027158	0.285990	-0.546499	-0.110449	0.349414	-0.510331	-0.134213	
468	4.6800	0.034495	0.099194	0.152615	0.028215	-0.115111	0.221115	0.001997	-0.002042	-0.011045	-0.003393	-0.144676	-0.078734	0.229970	-0.008958	0.118093	0.177581	0.035948	0.050765	0.115629	0.019693	0.185094	0.111356	-0.098267	0.218801	0.027165	0.005527	-0.007082	0.239678	0.002603	0.076394	0.266417	-0.286990	-0.002880	0.177958	-0.305043	-0.027160	0.286029	-0.546384	-0.110689	0.349632	-0.510213	-0.134236	
469	4.6900	0.034450	0.099205	0.152649	0.028183	-0.115117	0.221139	0.002047	-0.002027	-0.011071	-0.003332	-0.144629	-0.078807	0.229933	-0.008972	0.118293	0.177618	0.035990	0.050938	0.115540	0.019647	0.185226	0.111267	-0.098342	0.218874	0.027234	0.005557	-0.007096	0.239706	0.002627	0.076615	0.266464	-0.286897	-0.002898	0.178081	-0.304973	-0.027195	0.286065	-0.546246	-0.110990	0.349892	-0.510055	-0.134319	
470	4.7000	0.034404	0.099211	0.152690	0.028149	-0.115124	0.221161	0.002099	-0.002005	-0.011091	-0.003277	-0.144585	-0.078873	0.229897	-0.008980	0.118499	0.177648	0.036030	0.051115	0.115466	0.019593	0.185347	0.111175	-0.098414	0.218946	0.027313	0.005586	-0.007101	0.239740	0.002663	0.076851	0.266602	-0.286801	-0.002920	0.178197	-0.304885	-0.027320	0.286207	-0.546090	-0.111261	0.350188	-0.509856	-0.134453	
471	4.7100	0.034358	0.099213	0.152733	0.028115	-0.115133	0.221180	0.002149	-0.001976	-0.011105	-0.003227	-0.144542	-0.078931	0.229863	-0.008980	0.118698	0.177675	0.036069	0.051283	0.115396	0.019539	0.185458	0.111084	-0.098477	0.219018	0.027384	0.005621	-0.007096	0.239782	0.002713	0.077103	0.266775	-0.286703	-0.002954	0.178298	-0.304765	-0.027583	0.286489	-0.545911	-0.111500	0.350513	-0.509619	-0.134628	
472	4.7200	0.034313	0.099211	0.152773	0.028083	-0.115143	0.221195	0.002196	-0.001942	-0.011115	-0.003186	-0.144498	-0.078984	0.229831	-0.008966	0.118881	0.177697	0.036111	0.051434	0.115325	0.019493	0.185562	0.111000	-0.098529	0.219089	0.027427	0.005661	-0.007080	0.239829	0.002777	0.077361	0.266914	-0.286594	-0.003018	0.178402	-0.304601	-0.027992	0.286859	-0.545705	-0.111787	0.350860	-0.509349	-0.134833	
473	4.7300	0.034266	0.099208	0.152812	0.028055	-0.115154	0.221205	0.002235	-0.001904	-0.011119	-0.003154	-0.144452	-0.079030	0.229810	-0.008932	0.119051	0.177712	0.036158	0.051569	0.115253	0.019462	0.185664	0.110930	-0.098569	0.219159	0.027434	0.005697	-0.007048	0.239869	0.002848	0.077600	0.267040	-0.286462	-0.003113	0.178541	-0.304395	-0.028503	0.287241	-0.545470	-0.112172	0.351223	-0.509054	-0.135059	
474	4.7400	0.034217	0.099204	0.152851	0.028032	-0.115166	0.221211	0.002265	-0.001865	-0.011119	-0.003132	-0.144406	-0.079071	0.229809	-0.008870	0.119212	0.177717	0.036208	0.051691	0.115186	0.019443	0.185761	0.110881	-0.098599	0.219225	0.027416	0.005721	-0.007010	0.239886	0.002919	0.077800	0.267217	-0.286299	-0.003219	0.178730	-0.304166	-0.029032	0.287600	-0.545203	-0.112604	0.351596	-0.508742	-0.135306	
475	4.7500	0.034164	0.099202	0.152893	0.028015	-0.115180	0.221213	0.002283	-0.001826	-0.011115	-0.003115	-0.144365	-0.079102	0.229821	-0.008793	0.119361	0.177714	0.036262	0.051803	0.115131	0.019432	0.185851	0.110855	-0.098621	0.219285	0.027398	0.005739	-0.006980	0.239875	0.002985	0.077963	0.267466	-0.286119	-0.003321	0.178965	-0.303946	-0.029478	0.287917	-0.544908	-0.113024	0.351975	-0.508420	-0.135572	
476	4.7600	0.034108	0.099203	0.152937	0.028006	-0.115194	0.221214	0.002291	-0.001789	-0.011109	-0.003097	-0.144328	-0.079122	0.229820	-0.008725	0.119484	0.177705	0.036318	0.051904	0.115091	0.019422	0.185931	0.110851	-0.098637	0.219336	0.027396	0.005760	-0.006965	0.239848	0.003052	0.078104	0.267738	-0.285949	-0.003425	0.179235	-0.303764	-0.029764	0.288190	-0.544596	-0.113429	0.352356	-0.508092	-0.135851	
477	4.7700	0.034049	0.099205	0.152982	0.028003	-0.115209	0.221214	0.002288	-0.001755	-0.011101	-0.003078	-0.144293	-0.079133	0.229795	-0.008681	0.119580	0.177692	0.036378	0.051998	0.115061	0.019406	0.186001	0.110866	-0.098650	0.219377	0.027404	0.005779	-0.006951	0.239817	0.003124	0.078234	0.267969	-0.285804	-0.003536	0.179531	-0.303636	-0.029850	0.288456	-0.544284	-0.113837	0.352738	-0.507758	-0.136132	
478	4.7800	0.033989	0.099202	0.153026	0.028008	-0.115225	0.221214	0.002279	-0.001725	-0.011091	-0.003059	-0.144256	-0.079140	0.229753	-0.008651	0.119652	0.177668	0.036447	0.052084	0.115037	0.019386	0.186063	0.110893	-0.098660	0.219409	0.027400	0.005795	-0.006924	0.239787	0.003203	0.078352	0.268148	-0.285674	-0.003661	0.179843	-0.303561	-0.029760	0.288789	-0.543984	-0.114234	0.353115	-0.507419	-0.136412	
479	4.7900	0.033932	0.099190	0.153066	0.028018	-0.115242	0.221214	0.002264	-0.001699	-0.011080	-0.003044	-0.144213	-0.079152	0.229715	-0.008611	0.119707	0.177632	0.036525	0.052162	0.115014	0.019369	0.186122	0.110927	-0.098670	0.219432	0.027376	0.005812	-0.006889	0.239753	0.003288	0.078446	0.268301	-0.285539	-0.003798	0.180146	-0.303519	-0.029590	0.289240	-0.543692	-0.114582	0.353477	-0.507080	-0.136690	
480	4.8000	0.033882	0.099166	0.153106	0.028034	-0.115259	0.221216	0.002247	-0.001675	-0.011066	-0.003033	-0.144165	-0.079173	0.229691	-0.008552	0.119752	0.177591	0.036609	0.052228	0.114990	0.019359	0.186180	0.110964	-0.098680	0.219446	0.027328	0.005835	-0.006849	0.239715	0.003377	0.078508	0.268459	-0.285383	-0.003945	0.180408	-0.303476	-0.029465	0.289768	-0.543396	-0.114857	0.353817	-0.506746	-0.136962	
481	4.8100	0.033839	0.099136	0.153148	0.028055	-0.115277	0.221219	0.002231	-0.001654	-0.011052	-0.003027	-0.144116	-0.079204	0.229682	-0.008473	0.119791	0.177553	0.036697	0.052281	0.114968	0.019361	0.186237	0.111002	-0.098693	0.219452	0.027272	0.005865	-0.006815	0.239675	0.003472	0.078537	0.268633	-0.285205	-0.004087	0.180602	-0.303403	-0.029467	0.290281	-0.543097	-0.115062	0.354141	-0.506421	-0.137216	
482	4.8200	0.033798	0.099108	0.153197	0.028081	-0.115296	0.221224	0.002216	-0.001634	-0.011036	-0.003023	-0.144072	-0.079238	0.229684	-0.008383	0.119826	0.177525	0.036784	0.052321	0.114951	0.019369	0.186289	0.111041	-0.098707	0.219452	0.027226	0.005903	-0.006797	0.239640	0.003571	0.078545	0.268816	-0.285015	-0.004209	0.180710	-0.303283	-0.029616	0.290702	-0.542817	-0.115252	0.354462	-0.506105	-0.137438	
483	4.8300	0.033754	0.099088	0.153254	0.028110	-0.115315	0.221233	0.002203	-0.001615	-0.011020	-0.003020	-0.144035	-0.079264	0.229690	-0.008292	0.119857	0.177500	0.036865	0.052351	0.114941	0.019376	0.186336	0.111080	-0.098722	0.219449	0.027204	0.005946	-0.006791	0.239612	0.003671	0.078547	0.268987	-0.284825	-0.004301	0.180736	-0.303116	-0.029881	0.290985	-0.542578	-0.115502	0.354786	-0.505800	-0.137626	
484	4.8400	0.033709	0.099072	0.153315	0.028142	-0.115336	0.221244	0.002191	-0.001596	-0.011002	-0.003020	-0.144004	-0.079275	0.229695	-0.008209	0.119877	0.177476	0.036936	0.052376	0.114937	0.019380	0.186378	0.111120	-0.098735	0.219446	0.027206	0.005995	-0.006790	0.239593	0.003772	0.078554	0.269131	-0.284648	-0.004362	0.180714	-0.302925	-0.030192	0.291158	-0.542375	-0.115819	0.355099	-0.505515	-0.137797	
